<svg xmlns="http://www.w3.org/2000/svg" xmlns:xlink="http://www.w3.org/1999/xlink" viewbox="0 0 500 500" width="500" height="500" xml:space="preserve"><path fill="#EF801C" d="M379.4 144.8H121.8a7.8 7.8 0 0 0 0 15.6h257.6a7.8 7.8 0 0 0 0-15.6zM387.2 191.7c0-4.3-3.5-7.8-7.8-7.8H121.8a7.8 7.8 0 0 0 0 15.6h257.6c4.3 0 7.8-3.5 7.8-7.8zM238.9 230.7c0-4.3-3.5-7.8-7.8-7.8H121.8a7.8 7.8 0 0 0 0 15.6h109.3c4.3.1 7.8-3.5 7.8-7.8zM114 304.9a31.3 31.3 0 0 0 31.2 31.2 31.2 31.2 0 1 0-31.2-31.2zm46.8 0a15.6 15.6 0 1 1-31.2 0 15.6 15.6 0 0 1 31.2 0z"/><defs><path id="a" d="M.6 39.4h500v369.2H.6z"/></defs><clipPath id="b"><use xlink:href="#a" overflow="visible"/></clipPath><g clip-path="url(#b)"><path fill="#EF801C" d="M477 39.4H24.2A23.5 23.5 0 0 0 .8 62.8V383a23.4 23.4 0 0 0 23.4 23.4h236.5l11.3-15.6H24.2a7.8 7.8 0 0 1-7.8-7.8V62.8c0-4.3 3.5-7.8 7.8-7.8H477c4.3 0 7.8 3.5 7.8 7.8V383c0 4.3-3.5 7.8-7.8 7.8h-52.7l11.3 15.6H477a23.4 23.4 0 0 0 23.4-23.4V62.8A23.5 23.5 0 0 0 477 39.4z"/></g><defs><path id="c" d="M265.4 394.7h80.7v66.8h-80.7z"/></defs><clipPath id="d"><use xlink:href="#c" overflow="visible"/></clipPath><g clip-path="url(#d)"><path fill="#EF801C" d="m324.4 419.4-13.7 18.7-1.6-7.8a9.1 9.1 0 0 0-3.9-6.6 10 10 0 0 0-8.2-2.3l-9.8 1.2 14.8-20.7c-4.3-.8-9.8-2.7-14.4-6.6l-19.5 27.3c-2.3 3.5-2.7 7.8-.4 11.3 2.3 3.5 6.2 5.5 10.5 5.1l16.4-1.6 2.7 14.5a10 10 0 0 0 7.4 8.6c1.2.4 2 .4 3.1.4 3.5 0 6.6-1.6 8.6-4.3l28.1-39.1a30.8 30.8 0 0 1-12.9 2.7c-2.2.3-4.5-.1-7.2-.8z"/></g><g><defs><path id="e" d="M350.7 394.7h80.7v66.8h-80.7z"/></defs><clipPath id="f"><use xlink:href="#e" overflow="visible"/></clipPath><g clip-path="url(#f)"><path fill="#EF801C" d="M408.7 395.5a38 38 0 0 1-14.4 6.6l14.8 20.7-9.8-1.2a11 11 0 0 0-8.2 2.3c-2 1.6-3.5 4.3-3.9 6.6l-1.6 7.8-13.6-18.5c-8.2 2-15.2.4-20.3-1.6l28.1 39.1c1.9 2.7 5.1 4.3 8.6 4.3 1.2 0 1.9 0 3.1-.4 3.9-1.2 7-4.7 7.4-8.6l2.7-14.5 16.4 1.6c4.3.4 8.2-1.6 10.5-5.1a10 10 0 0 0-.4-11.3l-19.4-27.8z"/></g></g><path fill="#EF801C" d="M368.9 404.1c6.2-2 9-7.4 11.3-11.7a25 25 0 0 1 2.7-4.3c.8-.4 3.5-.8 5.1-1.2 4.7-.8 10.5-2 14.4-7 3.5-5.1 2.7-10.9 2.3-15.6-.4-1.6-.4-4.3-.4-5.1.4-.8 2-2.3 3.1-3.9 3.1-3.5 7.4-7.8 7.4-14.5 0-6.6-4.3-10.9-7.4-14.4-1.2-1.2-2.7-3.1-3.1-3.5-.4-.8 0-3.5.4-5.1.8-4.7 1.2-10.5-2.3-15.6-3.9-5.1-9.8-6.3-14.4-7-1.6-.4-4.3-.8-5.1-1.2-.8-.4-1.9-2.7-2.7-4.3-2.3-3.9-5.1-9.8-11.3-11.7-5.9-2-11.3.8-15.6 2.7-1.6.8-3.9 2-5.1 2-1.2 0-3.5-1.2-5.1-2-4.3-2-9.8-4.7-15.6-2.7-6.2 1.9-9 7.4-11.3 11.7a20 20 0 0 1-2.7 4.3c-.8.4-3.5.8-5.1 1.2-4.7.8-10.5 1.9-14.4 7-3.5 5.1-2.7 10.9-2.3 15.6.4 1.6.4 4.3.4 5.1-.4.8-2 2.3-3.1 3.9-3.1 3.5-7.4 7.8-7.4 14.4 0 6.6 4.3 10.9 7.4 14.5 1.2 1.2 2.7 3.1 3.1 3.5.4.8 0 3.5-.4 5.1-.8 4.7-1.2 10.5 2.3 15.6 3.9 5.1 9.8 6.2 14.4 7 1.6.4 4.3.8 5.1 1.2.8.4 2 2.7 2.7 4.3 2.3 3.9 5.1 9.8 11.3 11.7 1.6.4 2.7.8 4.3.8a25 25 0 0 0 11.3-3.5c1.6-.8 3.9-1.9 5.1-1.9 1.2 0 3.5 1.2 5.1 1.9 4.2 2.3 9.7 4.7 15.6 2.7zm-32.4-16.8a10 10 0 0 1-3.9 1.6c-.8-.8-1.6-2.7-2.3-3.9-1.6-3.1-3.9-7-7-9.4a31 31 0 0 0-11.3-3.9c-1.2-.4-3.5-.8-4.3-1.2 0-1.2.4-3.1.4-4.7.4-3.5 1.2-7.8-.4-12.1-1.2-3.9-4.3-7-6.6-9.8a21.5 21.5 0 0 1-3.1-3.5c.4-.8 1.9-2.7 3.1-3.5 2.3-2.7 5.5-5.5 6.6-9.8 1.2-4.3.8-8.2.4-12.1 0-1.6-.4-3.5-.4-4.7l4.3-1.2c3.5-.8 7.8-1.6 11.3-3.9 3.5-2.3 5.5-6.2 7-9.4.8-1.2 1.6-3.1 2.3-3.9l3.9 1.6c3.5 1.6 7.4 3.5 11.7 3.5 4.3 0 8.2-1.9 11.7-3.5a10 10 0 0 1 3.9-1.6c.8.8 1.6 2.7 2.3 3.9 1.6 3.1 3.9 7 7 9.4a31 31 0 0 0 11.3 3.9c1.2.4 3.5.8 4.3 1.2 0 1.2-.4 3.1-.4 4.7-.4 3.5-1.2 7.8.4 12.1 1.2 3.9 4.3 7 6.6 9.8 1.2 1.2 2.7 2.7 3.1 3.5-.4.8-2 2.7-3.1 3.5-2.3 2.7-5.5 5.5-6.6 9.8-1.2 4.3-.8 8.2-.4 12.1 0 1.6.4 3.5.4 4.7l-4.3 1.2c-3.5.8-7.8 1.6-11.3 3.9a22.4 22.4 0 0 0-7 9.4c-.8 1.2-1.6 3.1-2.3 3.9l-3.9-1.6c-3.5-1.6-7.4-3.5-11.7-3.5-4.3 0-8.2 2-11.7 3.5z"/><path fill="#EF801C" d="M375.5 341.3a27.1 27.1 0 0 0-27.3-27.3 27.1 27.1 0 0 0-27.3 27.3 27.1 27.1 0 0 0 27.3 27.3 27.4 27.4 0 0 0 27.3-27.3zM348.2 353c-6.6 0-11.7-5.1-11.7-11.7s5.1-11.7 11.7-11.7 11.7 5.1 11.7 11.7-5.1 11.7-11.7 11.7z"/><path fill="#EF801C" d="M453.5 375.2c8.6 0 15.6-7 15.6-15.6V86.3c0-8.6-7-15.6-15.6-15.6H47.7c-8.6 0-15.6 7-15.6 15.6v273.4c0 8.6 7 15.6 15.6 15.6h228.7c-.4-3.9-.4-7.8 0-10.5a28.2 28.2 0 0 1-3.9-5.1H47.7V147.2L107.8 87c.4-.4.4-.4.4-.8h284.5c0 .4.4.4.4.8l60.5 60.1v212.4h-29.7c-1.2 2-2.7 3.5-3.9 5.1a46 46 0 0 1 0 10.5h33.5zM47.7 124.9V86.3h38.6l-38.6 38.6zm367.2-38.6h38.6V125l-38.6-38.7z"/></svg>