<svg xmlns="http://www.w3.org/2000/svg" xmlns:xlink="http://www.w3.org/1999/xlink" viewbox="0 0 500 500" width="500" height="500" xml:space="preserve"><path fill="#EF801C" d="m195.3 302 1 .5 6.8 11.2a25.7 25.7 0 0 0-6 39.3 25.8 25.8 0 0 0-6.7 17.2 25.9 25.9 0 0 0 25.8 25.8H285a25.9 25.9 0 0 0 25.8-25.8c0-6.6-2.6-12.6-6.7-17.2a25.7 25.7 0 0 0-6-39.3l6.8-11.2 1-.5a118 118 0 0 0 73.7-111.2c0-67-57.9-121.4-129-121.4s-129 54.5-129 121.4c0 49.8 28.2 92.3 73.7 111.2zm89.7 76.8h-68.8a8.7 8.7 0 0 1-8.6-8.6c0-4.7 3.9-8.6 8.6-8.6H285c4.7 0 8.6 3.9 8.6 8.6 0 4.7-3.9 8.6-8.6 8.6zm0-34.4h-68.8a8.7 8.7 0 0 1-8.6-8.6c0-4.7 3.9-8.6 8.6-8.6H285c4.7 0 8.6 3.9 8.6 8.6 0 4.7-3.9 8.6-8.6 8.6zM250.6 86.5c61.6 0 111.8 46.8 111.8 104.2 0 42.9-24.3 79.4-63.5 95.5l-.8.4-3.4 1.9a8 8 0 0 0-3.2 3.1L280.2 310h-3.8v-65.2l40.5-40.5-12.2-12.2-43 43a8.6 8.6 0 0 0-2.5 6.1V310H242v-68.8c0-2.3-.9-4.5-2.5-6.1l-43-43-12.2 12.2 40.5 40.5V310H221l-11.3-18.4a8.6 8.6 0 0 0-3.2-3.1l-3.4-1.9-.8-.4a101.3 101.3 0 0 1-63.5-95.5c0-57.4 50.2-104.2 111.8-104.2zM66.2 85.6l7.7-15.4L125.5 96l-7.7 15.4-51.6-25.8zM373.7 91.8l54.7-18.3 5.4 16.3-54.7 18.3-5.4-16.3zM35.6 181.1h51.6v17.2H35.6v-17.2zM414 181.1h51.6v17.2H414v-17.2zM66.2 310.9l51.6-25.8 7.7 15.4-51.6 25.8-7.7-15.4zM375.8 300.5l7.7-15.4 51.6 25.8-7.7 15.4-51.6-25.8zM242 9.2h17.2v43H242v-43z"/><defs><path id="a" d="M0 394.2h499.2v96.6H0z"/></defs><clipPath id="b"><use xlink:href="#a" overflow="visible"/></clipPath><path clip-path="url(#b)" fill="#EF801C" d="M499.2 413.2V396C387 396 267.8 423.1 267 473.3h-34.4c-.8-50.2-120-77.4-232.2-77.4v17.2c126 0 214 31.6 215 60.2H.4v17.2h498.8v-17.2h-215c1.1-28.5 89-60.1 215-60.1z"/><g><defs><path id="c" d="M.3 436.7h165.8V465H.3z"/></defs><clipPath id="d"><use xlink:href="#c" overflow="visible"/></clipPath><g clip-path="url(#d)"><path fill="#EF801C" d="m.8 456.2.9-17.2 163.4 8.6-.9 17.2L.8 456.2z"/></g></g><g><defs><path id="e" d="M333.9 436.7H500V465H333.9z"/></defs><clipPath id="f"><use xlink:href="#e" overflow="visible"/></clipPath><g clip-path="url(#f)"><path fill="#EF801C" d="m336.1 447.6 163.4-8.7.9 17.2-163.4 8.7-.9-17.2z"/></g></g></svg>