<svg xmlns="http://www.w3.org/2000/svg" xmlns:xlink="http://www.w3.org/1999/xlink" viewbox="0 0 500 500" width="500" height="500" xml:space="preserve"><defs><path id="a" d="M54.9 350h168.6v150H54.9z"/></defs><clipPath id="b"><use xlink:href="#a" overflow="visible"/></clipPath><g clip-path="url(#b)"><path fill="#EF801C" d="m210.8 388.9-65.9 87.2-.4-50.2c0-2.3-1.2-4.3-3.1-5.8a7.4 7.4 0 0 0-4.7-1.6h-1.6L77.8 431l55.8-62.3c-2.3-5.8-3.9-12.1-5.1-17.5l-70.2 79a11.1 11.1 0 0 0-1.2 12.8c2.3 4.3 7 6.2 11.7 5.8h.8l59.7-13.2.8 52.5a12 12 0 0 0 8.2 10.5c1.2.4 2.3.4 3.5.4 3.5 0 7-1.6 9.4-4.7l71.4-94.9c-4.8-3.1-8.7-7-11.8-10.5z"/></g><defs><path id="c" d="M263.1 389.5h168.6V500H263.1z"/></defs><clipPath id="d"><use xlink:href="#c" overflow="visible"/></clipPath><g clip-path="url(#d)"><path fill="#EF801C" d="M400.3 400.2h-20.7l27.7 31.1-57.3-12.4a8 8 0 0 0-6.6 1.6c-2 1.6-3.1 3.5-3.1 5.8l-.4 49.8-64.3-85.2c-3.1 3.9-7 7.4-11.3 10.5l70.2 93.4c2.3 2.7 5.5 4.3 9 4.3 1.2 0 2.3 0 3.5-.4 4.7-1.6 7.8-5.4 8.2-10.5l.8-52.1 59.7 13.2h.8c4.7.8 9.4-1.6 11.7-5.8 2.3-4.3 1.9-9.3-1.2-13.2l-26.7-30.1z"/></g><path fill="#EF801C" d="M242.4 82.7c-62.4 0-113.1 50.6-113.1 112.9a113 113 0 0 0 226.2 0c0-62.2-50.7-112.9-113.1-112.9zm0 210.1a97.5 97.5 0 0 1-97.5-97.3 97.5 97.5 0 0 1 195 0 97.5 97.5 0 0 1-97.5 97.3z"/><path fill="#EF801C" d="m294.2 176.8-31.2-4.3-13.6-27.2c-1.2-2.7-3.9-4.3-7-4.3s-5.5 1.6-7 4.3l-13.6 27.2-31.2 4.3a6.9 6.9 0 0 0-6.2 5.5c-.8 2.7 0 5.8 1.9 8.2l22.2 21-5.1 29.6a9 9 0 0 0 3.1 7.8c2.3 1.9 5.5 1.9 8.2.8l27.7-14 27.7 14c1.2.4 2.3.8 3.5.8 1.6 0 3.1-.4 4.7-1.6a8.5 8.5 0 0 0 3.1-7.8l-5.1-30 22.2-21a7.1 7.1 0 0 0 1.9-8.2c-.7-2.7-3.4-4.7-6.2-5.1zm-31.9 26.1a7.6 7.6 0 0 0-2.3 7l3.1 18.3-17.5-9c-1.2-.4-2.3-.8-3.5-.8-1.2 0-2.3.4-3.5.8l-17.5 9 3.1-18.3c.4-2.7-.4-5.1-2.3-7l-13.6-12.8 19.1-2.7a8 8 0 0 0 5.8-4.3l8.6-17.1 8.6 17.1a8.3 8.3 0 0 0 5.9 4.3l19.1 2.7-13.1 12.8z"/><g><defs><path id="e" d="M47 0h392.6v392.2H47z"/></defs><clipPath id="f"><use xlink:href="#e" overflow="visible"/></clipPath><g clip-path="url(#f)"><path fill="#EF801C" d="M282.2 357.8c3.1-.8 9.4 2.3 14.8 5.1v-17.1a31 31 0 0 0-18.3-3.1c-9 1.9-15.2 10.5-21.5 18.7-3.9 5.1-9.7 12.8-12.9 12.8-3.1 0-9.4-7.8-12.9-12.8-6.2-8.2-12.9-16.3-21.8-18.3-1.2-.4-2.7-.4-3.9-.4-7.8 0-15.6 4.3-23.4 8.2-5.8 3.1-14.8 7.8-17.5 6.2-2.7-1.2-4.7-10.9-5.8-16.3-1.9-10.1-4.3-20.6-11.7-26.5-7.4-5.5-18.3-5.1-28.9-4.7-5.8.4-16.4.8-17.9-1.6-1.9-2.3.8-12.1 2-17.9 2.7-9.7 5.1-19.8 1.2-28-3.9-8.2-14-12.5-23.8-16.3-5.1-2.3-15.2-6.2-15.6-9-.8-2.7 6.2-10.9 9.7-15.2 6.6-7.8 13.6-16 13.6-24.9 0-8.9-7-17.1-14-24.5-3.9-4.3-10.9-12.1-10.1-14.8.8-2.7 10.1-7 15.6-9.3 9.7-4.3 19.5-8.6 23.4-16.7 3.9-8.2 1.2-18.3-1.6-28-1.6-5.8-4.3-15.6-2.3-17.9 1.9-2.7 12.5-2.3 18.7-2.3 10.1.4 21.1.4 27.7-5.1 7.4-5.8 9.4-16.3 11.3-26.5 1.2-5.8 3.1-15.6 5.5-16.7 2.7-1.6 12.1 3.1 17.6 5.8 9.4 4.7 18.7 9.3 27.7 7.4 9-1.9 15.2-10.5 21.5-18.7 3.1-5.1 9-12.8 12.1-12.8s9.4 7.8 12.9 12.8c6.2 8.2 12.9 16.3 21.8 18.3 9 1.9 18.3-3.1 27.3-7.8 6.2-3.1 15.2-7.8 17.9-6.2 2.7 1.2 4.7 10.9 5.8 16.7 1.9 10.1 4.3 20.6 11.7 26.5 7.4 5.5 18.3 5.1 28.9 4.7 5.8-.4 16.4-.8 17.9 1.6 1.9 2.3-.8 12.1-2 17.9-2.7 9.7-5.1 19.8-1.2 28 3.9 8.2 14 12.5 23.8 16.3 5.1 2.3 15.2 6.2 15.6 9 .8 2.7-6.2 10.9-9.7 15.2-6.6 7.8-13.6 16-13.6 24.9 0 8.9 7 17.1 14 24.5 3.9 4.3 10.9 12.1 10.1 14.8-.8 2.7-10.1 7-15.6 9.3-1.2.4-2.3 1.2-3.5 1.6l3.1 1.2c4.7 1.9 9 5.1 12.5 8.9 9-4.3 16.8-8.9 18.7-17.5 2.3-10.5-5.8-19.8-13.6-28.8-4.3-4.7-10.1-11.3-10.1-14.4 0-3.1 5.9-9.7 9.7-14.8 7.8-8.9 15.6-18.3 13.3-28.8-2.7-10.5-14-15.2-25-19.8-5.8-2.7-14.4-5.8-15.6-9-1.6-2.7.8-10.9 2.3-17.1 2.7-10.9 5.8-23.4-1.2-31.9-6.6-8.2-18.7-7.4-30.8-7-6.6.4-16 .8-18.7-1.6-2.7-2.3-4.7-10.9-5.9-17.1-2.3-11.3-4.7-23-14.4-27.6-9.7-4.7-20.7 1.2-31.6 6.6-5.8 3.1-13.6 7-16.8 6.2-3.5-.8-9-7.8-12.9-12.8-7-8.9-14.4-18.3-25.4-18.3s-17.9 9.7-25.3 19.5c-3.9 5.1-9 12.1-12.5 12.8-3.5.8-11.3-3.1-17.2-6.2-10.5-5.4-21.8-10.9-31.6-6.2-9.7 4.7-12.1 16.3-14 28-1.2 6.2-2.7 14.8-5.5 17.1C132 68 123 68 116.8 67.7c-12.1-.4-24.6-.4-31.2 8.2-7 8.6-3.5 21-.4 31.9 1.6 5.8 3.9 14 2.7 16.7-1.6 3.1-9.7 6.6-15.6 9.3-10.9 4.7-21.8 9.7-24.2 20.2-2.3 10.5 5.8 19.8 13.6 28.8C66.1 187.3 72 194 72 197.1c0 3.1-5.8 9.7-9.7 14.8-7.8 8.9-15.6 18.3-13.3 28.8 2.7 10.5 14 15.2 25 19.8 5.9 2.7 14.4 5.8 15.6 9 1.6 2.7-.8 11.3-2.3 17.1-2.7 10.9-5.8 23.4 1.2 31.9 6.6 8.2 18.7 7.4 30.8 7 6.6-.4 16-.8 18.7 1.6 2.7 1.9 4.7 10.9 5.9 17.1 2.3 11.3 4.7 23 14.4 27.6 9.8 4.7 20.7-1.2 31.6-6.6 5.8-3.1 13.6-7 16.8-6.2 3.5.8 9 7.8 12.9 12.8 7 9.3 14.4 18.7 25.4 18.7s17.9-9.7 25.3-19.5c3.3-5.4 8.4-12.4 11.9-13.2z"/></g></g><g><defs><path id="g" d="M310.5 255.2h142.4v129.1H310.5z"/></defs><clipPath id="h"><use xlink:href="#g" overflow="visible"/></clipPath><g clip-path="url(#h)"><path fill="#EF801C" d="M449.8 330.2c2-3.1 3.1-7 3.1-11.3a22.3 22.3 0 0 0-23-21.8h-13.6c.4-2.7.8-5.1.4-6.6-.8-6.6-2.7-24.1-17.2-30.7a21.6 21.6 0 0 0-9.7-2.3h-1.2c-4.7.4-9.4 1.9-13.3 5.1-9.4 7.4-9 18.3-8.6 22.6v3.5c-2 4.3-7.8 13.2-10.1 16.7l-3.9 1.2a22.3 22.3 0 0 0-9-1.9h-15.6c-8.6 0-15.6 7-15.6 15.6V367c0 8.6 7 15.6 15.6 15.6h15.6c3.9 0 7-1.6 9.7-3.5h7.8a20 20 0 0 0 10.9 3.5H419a22.6 22.6 0 0 0 22.6-22.6v-.4c2.7-3.9 4.3-8.2 4.3-13.2v-1.9c2.3-3.5 3.5-7.4 3.5-11.7.8-1.1.4-1.9.4-2.6zm-106 36.5h-15.6V320h15.6v46.7zm86.2-40.8s4.3 3.5 4.3 6.6c0 3.9-3.1 7-7.4 7 0 0 3.9 3.1 3.9 7s-3.1 7-7 7c0 0 2.7 3.1 2.7 7a7 7 0 0 1-7 7h-46.8c-2.3-.8-4.3-2.7-6.6-3.5-.4 0-1.6-.4-3.1-.4h-3.5v-42.4c3.5-1.2 7.4-2.3 7.4-2.3.8-1.9 15.2-23 15.2-27.2v-4.3c0-4.3-1.2-9 2.7-12.1a6.3 6.3 0 0 1 4.7-1.9h.4c1.2 0 2.3.4 3.5.8 6.2 2.7 7.4 12.4 8.2 17.9.4 3.1-4.3 19.5-5.1 20.6h33.9c3.9 0 7.4 2.3 7.4 6.2-.4 3.9-3.6 7-7.8 7z"/></g></g></svg>